#tb 0: 1001/30000
0,          0,          0,        1,      480, 7c5b5df373ebfd31d210ff910e02213b
0,          1,          1,        1,      480, c5b0a5e3eceb792b15818324a43aa2a8
0,          2,          2,        1,      480, 1d9c0eafd4638dfe4fe308174fde2faf
0,          3,          3,        1,      480, 47301d12055944b35008028761cf5e7b
0,          4,          4,        1,      480, 9586ac1087423dcd3b0ff96d43ae475e
0,          5,          5,        1,      480, 26bfe1afea96c7ef2084fffd1fa99a33
0,          6,          6,        1,      480, 0995c8a1935266159a7ef3f95d7f4697
0,          7,          7,        1,      480, 8cfcc0ea67507ab7f3551d8ac50f93a5
0,          8,          8,        1,      480, 658cf3cb887b055d9de7d50db4eb78a9
0,          9,          9,        1,      480, 856bd5189688f7ccfe9995752bc0f1f6
